<svg width="448" height="389" viewBox="0 0 448 389" fill="none" xmlns="http://www.w3.org/2000/svg">
<g clip-path="url(#clip0_668_5916)">
<path d="M324.195 130.707C336.933 137.832 350.402 147.013 362.89 154.823L386.541 169.88C390.768 172.512 395.605 174.982 399.675 177.774C400.019 199.775 399.518 222.627 399.566 244.701L399.618 388.09C390.717 388.295 381.119 388.039 372.15 388.123C367.391 388.168 353.265 388.44 349.156 387.752C346.262 385.274 343.019 381.744 340.3 378.938L325.851 364.055C309.701 347.908 293.676 331.637 277.779 315.239L227.77 264.725C220.558 257.414 211.797 249.233 205.089 241.665C201.65 244.13 196.422 250.657 193.187 253.871C187.162 259.858 181.169 265.978 175.2 272.016C164.92 282.33 154.552 292.556 144.094 302.689C139.899 306.754 135.463 310.475 131.413 314.684C128.762 317.442 125.276 319.751 123.195 323.031C123.61 339.305 123.226 355.811 123.357 372.1C123.396 376.931 123.183 383.844 123.43 388.5C105.17 387.897 86.2746 388.259 67.9774 388.205C64.3068 388.195 50.7646 387.921 47.9704 388.37C47.5179 386.195 47.6023 374.764 47.6741 371.828C47.9291 361.448 46.9371 348.161 47.8624 338.013C52.5085 337.416 115.561 275.86 123.482 267.284C124.779 266.282 127.994 262.77 129.329 261.427L144.192 246.176L165.634 223.759C170.837 218.242 176.403 212.687 180.957 206.604C193.249 190.191 204.999 173.383 217.543 157.149C219.265 154.921 220.986 152.669 222.855 150.564C228.111 155.052 234.805 163.046 239.948 167.93C245.342 173.053 250.368 178.613 255.543 183.924C258.762 187.228 262.054 189.998 265.255 193.504C278.434 206.634 291.537 219.842 304.565 233.122C310.775 239.426 317.744 246.991 324.246 252.872C324.777 230.286 324.406 207.071 324.473 184.367L324.304 152.453C324.301 145.866 324.575 137.125 324.195 130.707Z" fill="#082F4D"/>
<path d="M222.855 150.562C228.111 155.05 234.805 163.045 239.948 167.929C245.342 173.052 250.368 178.611 255.543 183.922C258.762 187.226 262.054 189.997 265.255 193.503C266.836 201.732 268.915 209.01 270.843 217.1L283.907 270.388C285.702 277.582 288.858 288.282 290.119 295.222L237.422 243.842C231.84 238.335 223.699 231.772 218.876 225.737C215.383 230.26 209.104 236.992 205.089 241.663C201.65 244.129 196.422 250.656 193.187 253.87C187.162 259.856 181.169 265.976 175.2 272.014C164.92 282.328 154.552 292.555 144.094 302.688C139.899 306.753 135.463 310.473 131.413 314.683C128.762 317.441 125.276 319.749 123.195 323.029C123.61 339.303 123.226 355.809 123.357 372.098C123.396 376.929 123.183 383.843 123.43 388.499C105.17 387.895 86.2746 388.257 67.9774 388.203C64.3068 388.194 50.7646 387.919 47.9704 388.369C47.5179 386.193 47.6023 374.763 47.6741 371.827C47.9291 361.446 46.9371 348.16 47.8624 338.012C52.5085 337.414 115.561 275.859 123.482 267.283C124.779 266.281 127.994 262.768 129.329 261.426L144.192 246.175L165.634 223.757C170.837 218.241 176.403 212.686 180.957 206.602C193.249 190.19 204.999 173.381 217.543 157.148C219.265 154.919 220.986 152.667 222.855 150.562Z" fill="#F27826"/>
<path d="M123.195 323.029C123.611 339.303 123.226 355.809 123.357 372.098C123.396 376.929 123.184 383.843 123.43 388.499C105.17 387.895 86.2749 388.257 67.9777 388.203C64.3071 388.194 50.7649 387.919 47.9707 388.369C52.822 384.594 57.866 379.944 62.6422 375.952C76.5561 364.512 90.2017 352.749 103.568 340.676C106.854 337.752 120.682 324.432 123.195 323.029Z" fill="#082F4D"/>
<path d="M47.8059 16.686C57.36 16.5909 66.915 16.5916 76.4691 16.6884C80.2061 16.7053 88.6789 16.5556 92.0738 17.0448C94.3472 18.7968 96.6236 21.3243 98.6388 23.4215C117.518 43.069 136.936 62.2409 155.969 81.7211C174.354 100.865 192.948 119.808 211.745 138.548C209.877 142.186 205.863 147.466 203.353 150.968C198.501 157.796 193.585 164.578 188.605 171.312L176.077 188.31C173.057 192.475 168.871 198.8 165.345 202.224C161.427 198.86 157.984 194.69 154.306 191.062C149.437 186.262 144.715 181.219 139.845 176.431C134.625 171.299 129.148 165.007 123.534 160.378L123.566 234.416C123.564 241.538 123.524 248.662 123.447 255.783C123.418 258.704 123.196 264.61 123.482 267.284C115.56 275.859 52.5084 337.415 47.8623 338.013C48.3499 326.724 48.0509 314.029 48.0306 302.653L47.8397 232.82L47.9465 183.953C47.9634 177.721 48.4021 164.021 47.7356 158.22C38.3314 163.822 29.9015 169.869 20.2958 175.383C18.6988 173.652 13.9133 166.004 12.8833 163.848C11.0977 160.111 -0.0856412 144.039 0.587787 141.613C3.5286 138.354 43.1827 113.722 47.7896 112.467C48.1788 110.025 48.0246 103.882 48.0101 101.097L47.9266 80.7712C48.0035 67.1324 48.0062 53.4935 47.9344 39.8547C47.9329 32.3406 48.1245 24.1838 47.8059 16.686Z" fill="#082F4D"/>
<path d="M47.7896 112.467C47.6719 123.053 47.6366 133.64 47.6846 144.227C47.7021 147.903 47.4806 154.793 47.7356 158.221C38.3314 163.822 29.9015 169.869 20.2958 175.383C18.6988 173.652 13.9133 166.004 12.8833 163.848C11.0977 160.112 -0.0856412 144.039 0.587787 141.613C3.5286 138.354 43.1827 113.722 47.7896 112.467Z" fill="#F27826"/>
<path d="M145.82 49.1268C148.669 46.1161 160.011 39.4138 163.886 37.054L179.602 27.271L203.74 12.14C207.736 9.6327 220.136 1.669 223.879 0.537109C225.964 0.96802 236.813 8.24643 239.397 9.84453L293.619 43.7992C303.03 49.7988 315.246 58.1861 324.608 63.5206C324.177 58.7245 324.482 48.9855 324.515 43.5783C324.566 35.0618 324.171 25.1536 324.512 16.7847C349.298 16.3553 374.669 17.5173 399.591 16.667C399.201 39.0867 400.085 62.233 399.747 84.7134C399.63 92.3988 400.052 103.431 399.591 110.887C400.049 111.637 442.591 138.243 447.714 141.598C445.88 145.915 442.157 151.226 439.758 155.379C435.881 162.087 431.708 168.504 427.56 175.044C418.852 170.354 409.303 163.895 400.81 158.597L342.02 121.477L269.868 75.9373L241.546 58.0691C235.664 54.3614 229.467 50.6389 223.742 46.7341C211.139 54.9181 197.911 62.4931 185.207 70.5383C181.66 72.7852 177.519 75.5589 173.779 77.3855C171.76 75.9515 168.377 72.0157 166.417 70.054L145.82 49.1268Z" fill="#F27826"/>
<path d="M324.511 16.7837C349.297 16.3543 374.668 17.5164 399.59 16.666C399.201 39.0857 400.085 62.2321 399.747 84.7124C399.629 92.3979 400.052 103.43 399.59 110.886C396.078 108.961 390.94 105.554 387.503 103.381L366.8 90.3124L346.678 77.6009C339.301 73.0271 331.722 68.4772 324.608 63.5197C324.176 58.7235 324.481 48.9846 324.514 43.5774C324.565 35.0609 324.17 25.1527 324.511 16.7837Z" fill="#082F4D"/>
</g>
<defs>
<clipPath id="clip0_668_5916">
<rect width="448" height="389" fill="white"/>
</clipPath>
</defs>
</svg>
