<svg width="359" height="263" viewBox="0 0 359 263" fill="none" xmlns="http://www.w3.org/2000/svg">
<g clip-path="url(#clip0_668_5924)">
<path d="M135.294 119.065C145.518 119.173 155.742 119.198 165.966 119.142C165.679 124.603 165.909 131.1 165.929 136.682L165.959 166.005L165.956 262.049C164.945 262.237 158.762 262.162 157.32 262.158L137.746 262.09C130.929 254.174 121.339 240.827 114.687 232.166L67.148 170.239C68.457 200.019 66.959 232.139 67.6918 262.174C59.9351 261.82 44.5879 261.841 36.8574 262.237C37.1906 245.359 36.9043 227.455 36.8949 210.478L36.875 119.21C45.4914 118.878 56.8773 119.142 65.5664 119.267C67.0406 120.808 70.2879 125.261 71.7203 127.112C76.3438 133.061 80.9168 139.048 85.4395 145.074L113.805 182.019C120.903 191.335 128.54 201.75 135.946 210.703C135.128 204.321 135.514 190.616 135.54 183.881L135.557 139.043C135.559 134.353 135.824 123.309 135.294 119.065Z" fill="#022F57"/>
<path d="M221.106 119.08C221.293 119.261 221.48 119.442 221.668 119.623C221.559 131.479 221.695 165.98 221.645 175.462C242.113 175.37 263.262 175.112 283.68 175.485L283.688 119.085C293.375 119.401 304.508 119.161 314.305 119.168C314.016 126.9 314.258 135.994 314.262 143.873L314.301 191.226L314.313 235.412C314.313 244.077 314.129 253.563 314.512 262.142C304.742 261.914 293.555 262.016 283.758 262.184L283.777 204.534C263.891 205.289 241.777 204.561 221.637 204.717L221.605 262.191C214.094 261.823 198.652 261.873 191.16 262.252L191.086 119.155C201.094 119.198 211.102 119.173 221.106 119.08Z" fill="#022F57"/>
<path d="M179.039 0.253906C181.539 0.864325 199.531 11.236 203.141 13.2504L279.102 56.1367L330.121 84.8361C336.066 88.1667 353.105 97.3698 357.809 100.951C358.418 105.066 357.988 120.779 357.941 125.914C348.867 120.489 338.879 115.144 329.617 109.892L266.805 74.4793C238.176 58.4151 208.34 40.8516 179.48 25.4892C177.328 26.0739 169.672 30.6167 167.372 31.9242L146.75 43.5995C116.317 60.5354 85.9727 77.6287 55.7168 94.8785L20.7942 114.602C15.6531 117.459 4.84221 123.046 0.451974 126.142C0.686349 117.837 0.123841 109.866 0.560169 101.262C4.134 97.8416 20.3004 89.3797 25.9832 86.1093L115.052 36.0206L161.016 10.112C165.376 7.69883 174.879 1.90004 179.039 0.253906Z" fill="#FA6824"/>
</g>
<defs>
<clipPath id="clip0_668_5924">
<rect width="359" height="263" fill="white"/>
</clipPath>
</defs>
</svg>
